<svg xmlns="http://www.w3.org/2000/svg" width="1400" height="620" viewBox="0 0 1400 620">
<defs>
<linearGradient id="bg" x1="0" y1="0" x2="1" y2="1">
<stop stop-color="#03040A"/>
<stop offset=".5" stop-color="#10082A"/>
<stop offset="1" stop-color="#03050C"/>
</linearGradient>

<linearGradient id="trust" x1="0" y1="0" x2="1" y2="1">
<stop stop-color="#8B5CF6"/>
<stop offset=".5" stop-color="#22D3EE"/>
<stop offset="1" stop-color="#C084FC"/>
</linearGradient>

<pattern id="grid" width="42" height="42" patternUnits="userSpaceOnUse">
<path d="M42 0H0V42" fill="none" stroke="#7C3AED" stroke-opacity=".12"/>
</pattern>
</defs>

<rect width="1400" height="620" fill="url(#bg)"/>
<rect width="1400" height="620" fill="url(#grid)"/>

<text x="70" y="70" fill="#F5F3FF" font-family="Arial" font-size="34" font-weight="700">
TRUST ENGINE
</text>

<text x="70" y="102" fill="#67E8F9" font-family="Arial" font-size="13" letter-spacing="3">
QUALITY IS PART OF THE PIPELINE
</text>

<circle cx="700" cy="320" r="115" fill="#080817" stroke="url(#trust)" stroke-width="3"/>
<circle cx="700" cy="320" r="145" fill="none" stroke="#8B5CF6" stroke-opacity=".2"/>
<circle cx="700" cy="320" r="175" fill="none" stroke="#22D3EE" stroke-opacity=".12"/>

<text x="700" y="312" text-anchor="middle" fill="#F5F3FF" font-family="Arial" font-size="28" font-weight="700">
TRUST
</text>

<text x="700" y="340" text-anchor="middle" fill="#A5B4FC" font-family="Arial" font-size="13">
ENGINE
</text>

<g stroke="url(#trust)" stroke-opacity=".4" stroke-width="2">

<line x1="700" y1="205" x2="700" y2="135"/>
<line x1="805" y1="250" x2="1000" y2="185"/>
<line x1="810" y1="390" x2="1000" y2="455"/>
<line x1="700" y1="435" x2="700" y2="510"/>
<line x1="590" y1="390" x2="400" y2="455"/>
<line x1="590" y1="250" x2="400" y2="185"/>

</g>

<g fill="#22D3EE">
<circle cx="700" cy="135" r="8"/>
<circle cx="1000" cy="185" r="8"/>
<circle cx="1000" cy="455" r="8"/>
<circle cx="700" cy="510" r="8"/>
<circle cx="400" cy="455" r="8"/>
<circle cx="400" cy="185" r="8"/>
</g>

<g text-anchor="middle" fill="#CBD5E1" font-family="Arial" font-size="12" font-weight="600">
<text x="700" y="115">COMPLETENESS</text>
<text x="1030" y="165">UNIQUENESS</text>
<text x="1030" y="485">REFERENTIAL INTEGRITY</text>
<text x="700" y="540">SCHEMA CONSISTENCY</text>
<text x="370" y="485">RECONCILIATION</text>
<text x="370" y="165">LINEAGE</text>
</g>

</svg>
