<svg xmlns="http://www.w3.org/2000/svg" width="1400" height="620" viewBox="0 0 1400 620">
<defs>
<linearGradient id="bg" x1="0" y1="0" x2="1" y2="1">
<stop stop-color="#03040A"/>
<stop offset=".5" stop-color="#10082A"/>
<stop offset="1" stop-color="#03050C"/>
</linearGradient>

<linearGradient id="matrix" x1="0" y1="0" x2="1" y2="0">
<stop stop-color="#7C3AED"/>
<stop offset=".5" stop-color="#22D3EE"/>
<stop offset="1" stop-color="#C084FC"/>
</linearGradient>

<pattern id="grid" width="42" height="42" patternUnits="userSpaceOnUse">
<path d="M42 0H0V42" fill="none" stroke="#7C3AED" stroke-opacity=".12"/>
</pattern>
</defs>

<rect width="1400" height="620" fill="url(#bg)"/>
<rect width="1400" height="620" fill="url(#grid)"/>

<text x="70" y="70" fill="#F5F3FF" font-family="Arial" font-size="34" font-weight="700">
EXPERIENCE MATRIX
</text>

<text x="70" y="102" fill="#67E8F9" font-family="Arial" font-size="13" letter-spacing="3">
DOMAIN × CAPABILITY
</text>

<g font-family="Arial">

<g fill="#A5B4FC" font-size="12" font-weight="700" text-anchor="middle">
<text x="510" y="155">DATA</text>
<text x="665" y="155">ANALYTICS</text>
<text x="820" y="155">AI / ML</text>
<text x="975" y="155">QUALITY</text>
<text x="1130" y="155">PLATFORM</text>
</g>

<g fill="#EDE9FE" font-size="13" font-weight="700">
<text x="245" y="205">HCA</text>
<text x="245" y="275">HIKMA</text>
<text x="245" y="345">BRIT</text>
<text x="245" y="415">UNT</text>
<text x="245" y="485">EKA CARE</text>
</g>

<g fill="#22D3EE" fill-opacity=".8">
<rect x="470" y="180" width="80" height="42" rx="9"/>
<rect x="625" y="180" width="80" height="42" rx="9"/>
<rect x="935" y="180" width="80" height="42" rx="9"/>
<rect x="1090" y="180" width="80" height="42" rx="9"/>

<rect x="470" y="250" width="80" height="42" rx="9"/>
<rect x="625" y="250" width="80" height="42" rx="9"/>
<rect x="780" y="250" width="80" height="42" rx="9"/>
<rect x="935" y="250" width="80" height="42" rx="9"/>
<rect x="1090" y="250" width="80" height="42" rx="9"/>

<rect x="470" y="320" width="80" height="42" rx="9"/>
<rect x="935" y="320" width="80" height="42" rx="9"/>

<rect x="470" y="390" width="80" height="42" rx="9"/>
<rect x="625" y="390" width="80" height="42" rx="9"/>
<rect x="935" y="390" width="80" height="42" rx="9"/>

<rect x="470" y="460" width="80" height="42" rx="9"/>
<rect x="780" y="460" width="80" height="42" rx="9"/>
<rect x="935" y="460" width="80" height="42" rx="9"/>
</g>

<g fill="#312E81" fill-opacity=".35">
<rect x="780" y="180" width="80" height="42" rx="9"/>
<rect x="780" y="320" width="80" height="42" rx="9"/>
<rect x="1090" y="320" width="80" height="42" rx="9"/>
<rect x="1090" y="390" width="80" height="42" rx="9"/>
</g>

</g>

</svg>
